<svg width="45" height="28" viewBox="0 0 45 28" fill="none" xmlns="http://www.w3.org/2000/svg">
<path d="M7.98047 4.85834V8.9037C7.98047 9.05384 8.04011 9.19783 8.14628 9.304C8.25244 9.41016 8.39643 9.46981 8.54657 9.46981C8.69671 9.46981 8.8407 9.41016 8.94687 9.304C9.05303 9.19783 9.11267 9.05384 9.11267 8.9037V4.85834C9.11267 4.7082 9.05303 4.56421 8.94687 4.45804C8.8407 4.35188 8.69671 4.29224 8.54657 4.29224C8.39643 4.29224 8.25244 4.35188 8.14628 4.45804C8.04011 4.56421 7.98047 4.7082 7.98047 4.85834Z" fill="#87F54E"/>
<path d="M10.6562 3.62299V8.90359C10.6563 9.05373 10.7159 9.19772 10.8221 9.30388C10.9282 9.41005 11.0722 9.46969 11.2224 9.46969C11.3725 9.46969 11.5165 9.41005 11.6226 9.30388C11.7288 9.19772 11.7885 9.05373 11.7885 8.90359V3.62299C11.7885 3.47285 11.7288 3.32886 11.6226 3.22269C11.5165 3.11653 11.3725 3.05688 11.2224 3.05688C11.0722 3.05688 10.9282 3.11653 10.8221 3.22269C10.7159 3.32886 10.6562 3.47285 10.6562 3.62299Z" fill="#87F54E"/>
<path d="M13.1465 2.73212V8.90376C13.1465 9.0539 13.2061 9.19789 13.3123 9.30406C13.4185 9.41022 13.5624 9.46987 13.7126 9.46987C13.8627 9.46987 14.0067 9.41022 14.1129 9.30406C14.219 9.19789 14.2787 9.0539 14.2787 8.90376V2.73212C14.2787 2.58198 14.219 2.43799 14.1129 2.33182C14.0067 2.22566 13.8627 2.16602 13.7126 2.16602C13.5624 2.16602 13.4185 2.22566 13.3123 2.33182C13.2061 2.43799 13.1465 2.58198 13.1465 2.73212Z" fill="#87F54E"/>
<path d="M41.7552 5.89426H38.484V5.30551C38.484 4.79173 38.2797 4.299 37.9161 3.9357C37.5525 3.5724 37.0594 3.36831 36.5452 3.36831C36.031 3.36831 35.5379 3.5724 35.1743 3.9357C34.8108 4.299 34.6065 4.79173 34.6065 5.30551V5.89426H33.6808V4.58316C33.6671 3.95098 33.4061 3.34929 32.9538 2.90703C32.5015 2.46476 31.8939 2.2171 31.261 2.2171C30.6282 2.2171 30.0205 2.46476 29.5682 2.90703C29.1159 3.34929 28.855 3.95098 28.8413 4.58316V5.2523H27.8997V3.00034C27.8988 2.20488 27.5822 1.44225 27.0192 0.879772C26.4563 0.317294 25.6931 0.000899 24.897 0H20.1233C19.973 0 19.8289 0.0596427 19.7227 0.165807C19.6164 0.271972 19.5567 0.415962 19.5567 0.566102C19.5567 0.716241 19.6164 0.860232 19.7227 0.966397C19.8289 1.07256 19.973 1.1322 20.1233 1.1322H23.6268V12.1033H3.42709C2.10816 11.0775 1.40904 9.91131 1.40904 8.6908C1.41058 7.66136 1.73865 6.65891 2.34611 5.82746L2.36991 5.79349C3.01011 4.90584 3.96304 4.11556 5.21285 3.4453C8.03312 1.93267 12.2233 1.13334 17.3302 1.13334C17.4804 1.13334 17.6245 1.07369 17.7308 0.967529C17.837 0.861364 17.8967 0.717374 17.8967 0.567234C17.8967 0.417094 17.837 0.273104 17.7308 0.166939C17.6245 0.0607747 17.4804 0.00113201 17.3302 0.00113201C14.1722 0.00113201 11.3418 0.302298 8.93734 0.885383L1.71498 0.652149C1.43408 0.64344 1.15555 0.705986 0.905393 0.833951C0.655235 0.961915 0.441602 1.15112 0.284435 1.38392C0.127268 1.61671 0.0316926 1.8855 0.00662882 2.16519C-0.018435 2.44489 0.0278305 2.72637 0.141107 2.98336L1.24134 5.4527C0.612189 6.41572 0.27678 7.54074 0.275945 8.6908C0.275945 11.2281 2.40503 13.3702 6.03774 14.85L5.38508 18.19C5.37081 18.2634 5.37124 18.3389 5.38634 18.4121C5.40144 18.4854 5.43091 18.5549 5.47305 18.6167C5.51519 18.6785 5.56917 18.7313 5.63186 18.7722C5.69456 18.813 5.76472 18.841 5.83832 18.8546C5.87568 18.8616 5.91362 18.865 5.95162 18.8648C6.08223 18.8648 6.20884 18.8197 6.31001 18.7372C6.41119 18.6547 6.48072 18.5398 6.50684 18.4119L7.11078 15.2576C8.24021 15.6419 9.39302 15.9539 10.5622 16.1917L9.86421 19.9426L8.80023 25.6625C8.77033 25.8243 8.68473 25.9704 8.55828 26.0757C8.43182 26.1809 8.27249 26.2387 8.10791 26.2388H5.01682C4.92903 26.2386 4.84246 26.2182 4.76374 26.1794C4.68503 26.1405 4.61625 26.0842 4.56267 26.0147C4.50908 25.9452 4.47212 25.8644 4.4546 25.7784C4.43709 25.6925 4.43948 25.6036 4.4616 25.5188L5.80092 20.434C5.83574 20.29 5.81264 20.138 5.73659 20.0108C5.66053 19.8836 5.53758 19.7912 5.39414 19.7536C5.2507 19.7159 5.0982 19.736 4.9694 19.8094C4.84059 19.8829 4.74574 20.0039 4.70522 20.1464L3.3659 25.221C3.29746 25.4741 3.28834 25.7396 3.33923 25.9968C3.39013 26.2541 3.49967 26.4961 3.65936 26.7042C3.81905 26.9123 4.02458 27.0808 4.26 27.1966C4.49543 27.3125 4.7544 27.3725 5.01682 27.3722H8.10791C8.53701 27.372 8.95252 27.2217 9.28241 26.9475C9.61229 26.6733 9.83576 26.2924 9.91406 25.8709L10.85 20.8439L13.5989 21.9897C13.9454 22.1341 14.3209 22.1954 14.6954 22.1687C15.0699 22.1419 15.4329 22.0279 15.7553 21.8357C16.0778 21.6435 16.3507 21.3785 16.5521 21.062C16.7536 20.7454 16.878 20.3861 16.9155 20.0128L17.2316 16.9797C18.0361 17.0159 18.8599 17.0344 19.7029 17.0351L21.8229 17.0521H24.897C25.6929 17.0512 26.4559 16.735 27.0188 16.1728C27.5817 15.6105 27.8985 14.8482 27.8997 14.0529V11.8259H28.8413V12.6309C28.8343 12.9528 28.8918 13.2729 29.0102 13.5723C29.1287 13.8717 29.3058 14.1445 29.5312 14.3747C29.7566 14.6048 30.0257 14.7876 30.3227 14.9125C30.6198 15.0373 30.9388 15.1016 31.261 15.1016C31.5833 15.1016 31.9023 15.0373 32.1993 14.9125C32.4964 14.7876 32.7655 14.6048 32.9909 14.3747C33.2162 14.1445 33.3934 13.8717 33.5118 13.5723C33.6303 13.2729 33.6877 12.9528 33.6808 12.6309V10.7288H34.6088V11.7478C34.6088 12.2615 34.813 12.7543 35.1766 13.1176C35.5402 13.4809 36.0333 13.685 36.5475 13.685C37.0617 13.685 37.5548 13.4809 37.9184 13.1176C38.282 12.7543 38.4862 12.2615 38.4862 11.7478V10.4287H41.7575C42.3585 10.4287 42.9349 10.1902 43.3599 9.7655C43.7849 9.34084 44.0237 8.76488 44.0237 8.16432C44.0237 7.56377 43.7849 6.9878 43.3599 6.56315C42.9349 6.13849 42.3585 5.89992 41.7575 5.89992L41.7552 5.89426ZM1.17562 2.52255C1.13847 2.44076 1.12312 2.35075 1.13106 2.26128C1.139 2.17181 1.16997 2.08591 1.22095 2.01193C1.26937 1.93673 1.33674 1.87559 1.4163 1.83465C1.49586 1.79371 1.5848 1.77441 1.67419 1.77869L5.78279 1.91342C5.39301 2.08099 5.02249 2.25309 4.67123 2.44669C3.68495 2.95898 2.79082 3.63164 2.02545 4.43711L1.17562 2.52255ZM15.788 19.8996C15.7675 20.0964 15.7011 20.2857 15.5943 20.4523C15.4875 20.619 15.3432 20.7584 15.1729 20.8593C15.0026 20.9603 14.811 21.0201 14.6135 21.0339C14.4159 21.0478 14.2179 21.0153 14.0351 20.939L11.0608 19.6936L11.676 16.3909C13.139 16.6418 14.614 16.8164 16.0951 16.914L15.788 19.8996ZM19.7074 15.9075C14.4578 15.9075 9.71351 15.1376 6.34934 13.7416C5.95956 13.5793 5.59206 13.4106 5.24684 13.2355H23.6268V15.9245H21.8274L19.7074 15.9075ZM26.7666 14.0574C26.7657 14.5525 26.5684 15.0271 26.2179 15.377C25.8675 15.727 25.3925 15.9239 24.897 15.9245H24.7599V1.1322H24.897C25.3927 1.1328 25.8679 1.32982 26.2183 1.68003C26.5688 2.03024 26.766 2.50506 26.7666 3.00034V14.0574ZM27.8997 10.6937V6.3845H28.8413V10.6937H27.8997ZM32.5454 12.6309C32.5505 12.8029 32.521 12.9742 32.4587 13.1347C32.3963 13.2951 32.3023 13.4414 32.1824 13.5649C32.0624 13.6884 31.9188 13.7866 31.7602 13.8536C31.6015 13.9207 31.431 13.9552 31.2588 13.9552C31.0865 13.9552 30.916 13.9207 30.7574 13.8536C30.5987 13.7866 30.4552 13.6884 30.3352 13.5649C30.2152 13.4414 30.1212 13.2951 30.0589 13.1347C29.9965 12.9742 29.967 12.8029 29.9721 12.6309V4.58316C29.9821 4.2488 30.122 3.93146 30.3622 3.69846C30.6024 3.46546 30.924 3.33513 31.2588 3.33513C31.5935 3.33513 31.9151 3.46546 32.1554 3.69846C32.3956 3.93146 32.5355 4.2488 32.5454 4.58316V12.6309ZM33.6785 9.59996V7.02646H34.6088V9.59656L33.6785 9.59996ZM37.3486 11.7511C37.3329 11.9536 37.2413 12.1427 37.092 12.2805C36.9427 12.4182 36.7469 12.4946 36.5437 12.4941C36.3404 12.4937 36.1449 12.4165 35.9962 12.2781C35.8475 12.1397 35.7567 11.9503 35.7419 11.7478V5.30551C35.7419 5.09201 35.8267 4.88726 35.9778 4.73629C36.1289 4.58532 36.3338 4.50051 36.5475 4.50051C36.7612 4.50051 36.9661 4.58532 37.1172 4.73629C37.2682 4.88726 37.3531 5.09201 37.3531 5.30551L37.3486 11.7511ZM41.7529 9.29653H38.9587V7.03212H41.7552C42.0557 7.03212 42.3439 7.15141 42.5564 7.36373C42.7689 7.57606 42.8883 7.86405 42.8883 8.16432C42.8883 8.4646 42.7689 8.75258 42.5564 8.96491C42.3439 9.17724 42.0557 9.29653 41.7552 9.29653H41.7529Z" fill="#87F54E"/>
</svg>
