<svg width="641" height="350" viewBox="0 0 641 350" fill="none" xmlns="http://www.w3.org/2000/svg">
<path d="M61.4775 102.028L104.209 99.1953L145.753 142.628L140.088 170.954L100.431 191.726L87.213 159.624L61.4775 102.028Z" fill="#AE9989" stroke="#1D1D1B" stroke-width="1.7079" stroke-miterlimit="10"/>
<path d="M67.386 196.448C93.459 196.448 114.595 175.311 114.595 149.238C114.595 123.165 93.459 102.029 67.386 102.029C41.3131 102.029 20.1768 123.165 20.1768 149.238C20.1768 175.311 41.3131 196.448 67.386 196.448Z" fill="#63604A" stroke="#1D1D1B" stroke-width="1.7079" stroke-miterlimit="10"/>
<path d="M95.8591 100.949C96.7323 104.624 105.829 110.225 111.34 108.915L109.419 96.7549C109.419 96.7549 94.5489 95.438 95.8591 100.949Z" fill="#88822C" stroke="#1D1D1B" stroke-width="1.7079" stroke-miterlimit="10"/>
<path d="M117.427 93.531C113.651 93.531 108.277 96.0893 107.041 103.917C106.246 108.954 110.81 114.883 114.526 120.014C115.176 120.911 116.578 120.543 116.702 119.441C117.047 116.348 117.943 111.899 120.26 109.582C124.036 105.806 125.925 102.028 125.925 100.14C125.925 95.4192 121.204 93.531 117.427 93.531Z" fill="#88822C" stroke="#1D1D1B" stroke-width="1.7079" stroke-miterlimit="10"/>
<path d="M161.857 139.712C161.776 143.488 159.101 148.805 151.249 149.872C146.25 150.551 140.49 147.855 135.479 144.052C134.541 143.34 134.967 141.86 136.14 141.748C139.229 141.453 143.556 138.751 145.871 136.534C149.729 132.839 153.545 131.033 155.434 131.074C160.153 131.176 161.939 135.937 161.857 139.712Z" fill="#88822C" stroke="#1D1D1B" stroke-width="1.7079" stroke-miterlimit="10"/>
<path d="M158.408 124.527C158.245 132.079 151.865 137.777 141.049 141.151C136.312 142.629 131.918 142.678 126.87 138.852C125.986 138.183 123.628 134.069 124.732 133.97C127.832 133.69 133.702 131.548 139.447 127.895C143.954 125.029 147.326 112.955 149.213 112.996C152.045 113.056 158.53 118.863 158.408 124.527Z" fill="#88822C" stroke="#1D1D1B" stroke-width="1.7079" stroke-miterlimit="10"/>
<path d="M132.534 97.3071C124.98 97.3071 115.538 102.973 115.538 114.303C115.538 119.402 116.474 126.214 120.189 131.344C120.84 132.241 122.242 131.873 122.365 130.771C122.711 127.678 124.98 121.856 128.757 116.191C131.72 111.747 143.863 108.637 143.863 106.749C143.864 103.916 138.199 97.3071 132.534 97.3071Z" fill="#88822C" stroke="#1D1D1B" stroke-width="1.7079" stroke-miterlimit="10"/>
<path d="M143.864 127.521C138.199 133.187 128.758 138.852 124.98 136.963C121.204 135.075 123.092 119.967 128.757 112.415C133.564 106.005 140.087 102.973 147.641 106.749C155.195 110.525 150.723 117.579 149.529 119.967C147.642 123.744 146.002 125.383 143.864 127.521Z" fill="#88822C" stroke="#1D1D1B" stroke-width="1.7079" stroke-miterlimit="10"/>
<path d="M320.428 311.64C496.682 311.64 639.565 291.771 639.565 267.262C639.565 242.753 496.682 222.885 320.428 222.885C144.174 222.885 1.29199 242.753 1.29199 267.262C1.29199 291.771 144.174 311.64 320.428 311.64Z" fill="#758468" stroke="#1D1D1B" stroke-width="1.7079" stroke-miterlimit="10"/>
<path d="M576.254 102.028L533.524 99.1953L491.979 142.628L497.644 170.954L537.301 191.726L550.519 159.624L576.254 102.028Z" fill="#AE9989" stroke="#1D1D1B" stroke-width="1.7079" stroke-miterlimit="10"/>
<path d="M570.347 196.448C596.42 196.448 617.556 175.311 617.556 149.238C617.556 123.165 596.42 102.029 570.347 102.029C544.274 102.029 523.138 123.165 523.138 149.238C523.138 175.311 544.274 196.448 570.347 196.448Z" fill="#63604A" stroke="#1D1D1B" stroke-width="1.7079" stroke-miterlimit="10"/>
<path d="M541.871 100.949C540.998 104.624 531.902 110.225 526.391 108.915L528.311 96.7549C528.311 96.7549 543.182 95.438 541.871 100.949Z" fill="#88822C" stroke="#1D1D1B" stroke-width="1.7079" stroke-miterlimit="10"/>
<path d="M520.305 93.531C524.082 93.531 529.455 96.0893 530.691 103.917C531.486 108.954 526.923 114.883 523.207 120.014C522.557 120.911 521.154 120.543 521.031 119.441C520.685 116.348 519.789 111.899 517.472 109.582C513.696 105.806 511.808 102.028 511.808 100.14C511.807 95.4192 516.528 93.531 520.305 93.531Z" fill="#88822C" stroke="#1D1D1B" stroke-width="1.7079" stroke-miterlimit="10"/>
<path d="M475.874 139.712C475.955 143.488 478.629 148.805 486.482 149.872C491.481 150.551 497.241 147.855 502.252 144.052C503.19 143.34 502.763 141.86 501.591 141.748C498.502 141.453 494.175 138.751 491.859 136.534C488.002 132.839 484.185 131.033 482.297 131.074C477.578 131.176 475.792 135.937 475.874 139.712Z" fill="#88822C" stroke="#1D1D1B" stroke-width="1.7079" stroke-miterlimit="10"/>
<path d="M479.324 124.527C479.487 132.079 485.867 137.777 496.683 141.151C501.421 142.629 505.814 142.678 510.863 138.853C511.746 138.183 514.104 134.07 513 133.97C509.901 133.691 504.03 131.549 498.285 127.896C493.778 125.03 490.406 112.956 488.519 112.996C485.686 113.056 479.201 118.863 479.324 124.527Z" fill="#88822C" stroke="#1D1D1B" stroke-width="1.7079" stroke-miterlimit="10"/>
<path d="M505.197 97.3071C512.75 97.3071 522.192 102.973 522.192 114.303C522.192 119.402 521.257 126.214 517.541 131.344C516.891 132.241 515.489 131.873 515.365 130.771C515.019 127.678 512.75 121.856 508.974 116.191C506.011 111.747 493.867 108.637 493.867 106.749C493.866 103.916 499.532 97.3071 505.197 97.3071Z" fill="#88822C" stroke="#1D1D1B" stroke-width="1.7079" stroke-miterlimit="10"/>
<path d="M493.867 127.522C499.533 133.187 508.974 138.852 512.751 136.964C516.528 135.075 514.639 119.968 508.975 112.415C504.167 106.005 497.644 102.973 490.091 106.749C482.537 110.526 487.008 117.579 488.202 119.968C490.091 123.744 491.73 125.384 493.867 127.522Z" fill="#88822C" stroke="#1D1D1B" stroke-width="1.7079" stroke-miterlimit="10"/>
<path d="M136.311 191.727C136.311 288.034 217.898 348.462 318.54 348.462C419.182 348.462 500.769 288.034 500.769 191.727C500.769 82.2191 419.182 1 318.54 1C217.898 1 136.311 82.2191 136.311 191.727Z" fill="#64614B" stroke="#1D1D1B" stroke-width="1.7079" stroke-miterlimit="10"/>
<path d="M315.708 293.699C77.7721 293.699 36.2275 269.15 36.2275 269.15C36.2275 269.15 56.9998 233.271 92.8788 210.611C128.758 187.95 148.885 174.732 148.885 174.732C148.885 174.732 219.4 184.174 317.596 184.174C415.792 184.174 457.336 180.397 478.108 174.732C498.881 169.066 612.183 257.821 612.183 257.821C612.183 257.821 614.072 263.486 606.519 267.263C598.966 271.039 587.635 293.699 315.708 293.699Z" fill="#FDBB47" stroke="#1D1D1B" stroke-width="1.7079" stroke-miterlimit="10"/>
<path d="M135.367 281.425C135.367 281.425 127.814 302.197 133.479 328.634L184.509 330.335C187.345 330.429 189.538 327.866 188.99 325.082C187.336 316.684 184.466 299.986 184.466 285.201L135.367 281.425Z" fill="#3C352E" stroke="#1D1D1B" stroke-width="1.7079" stroke-miterlimit="10"/>
<path d="M185.409 330.523C189.059 330.523 192.018 315.727 192.018 297.476C192.018 279.224 189.059 264.429 185.409 264.429C181.759 264.429 178.8 279.224 178.8 297.476C178.8 315.727 181.759 330.523 185.409 330.523Z" fill="#3C352E" stroke="#1D1D1B" stroke-width="1.7079" stroke-miterlimit="10"/>
<path d="M305.047 290.974L310.042 186.062L181.632 178.508C181.632 178.508 143.865 201.168 121.204 221.941C105.794 236.065 84.2731 258.923 72.0771 272.105C67.8686 276.653 70.232 284.044 76.2998 285.303C100.596 290.347 140.088 297.475 193.907 300.628C229.058 302.687 267.153 303.205 290.353 304.327C298.1 304.703 304.678 298.722 305.047 290.974Z" fill="#CFD3BA" stroke="#1D1D1B" stroke-width="1.7079" stroke-miterlimit="10"/>
<path d="M198.629 231.383C208.015 231.383 215.624 223.774 215.624 214.388C215.624 205.001 208.015 197.392 198.629 197.392C189.242 197.392 181.633 205.001 181.633 214.388C181.633 223.774 189.242 231.383 198.629 231.383Z" fill="#7A5644" stroke="#1D1D1B" stroke-width="1.7079" stroke-miterlimit="10"/>
<path d="M203.349 222.947C203.349 222.947 211.846 237.049 238.284 237.049L234.507 233.272L242.061 231.384C242.061 231.384 226.955 233.272 209.959 216.277L203.349 222.947Z" fill="#C6C3AB" stroke="#1D1D1B" stroke-width="1.1386" stroke-miterlimit="10"/>
<path d="M168.511 224.162C168.511 224.162 155.683 234.482 130.858 225.391L135.703 223.143L129.26 218.773C129.26 218.773 142.796 225.741 164.6 215.626L168.511 224.162Z" fill="#C6C3AB" stroke="#1D1D1B" stroke-width="1.1386" stroke-miterlimit="10"/>
<path d="M189.186 240.825C200.659 240.825 209.959 231.525 209.959 220.052C209.959 208.58 200.659 199.28 189.186 199.28C177.714 199.28 168.414 208.58 168.414 220.052C168.414 231.525 177.714 240.825 189.186 240.825Z" fill="#8A7331" stroke="#1D1D1B" stroke-width="1.7079" stroke-miterlimit="10"/>
<path d="M182.578 237.992C194.05 237.992 203.35 228.692 203.35 217.22C203.35 205.747 194.05 196.447 182.578 196.447C171.106 196.447 161.806 205.747 161.806 217.22C161.806 228.692 171.106 237.992 182.578 237.992Z" fill="#FFF9C9"/>
<path d="M4.68515 264.049C0.947649 262.278 -0.18347 257.484 2.39306 254.249C10.6235 243.912 32.3063 223.329 54.1674 209.666C84.3818 190.782 117.416 173.604 137.722 167.086C146.698 171.898 158.028 175.676 169.358 175.676C169.358 175.676 94.7592 219.047 43.6689 270.87C39.7075 274.888 33.6597 275.985 28.5614 273.569L4.68515 264.049Z" fill="#CFD3BA" stroke="#1D1D1B" stroke-width="1.7079" stroke-miterlimit="10"/>
<path d="M502.365 281.425C502.365 281.425 509.919 302.197 504.254 328.634L453.224 330.335C450.388 330.429 448.194 327.866 448.743 325.082C450.397 316.684 453.267 299.986 453.267 285.201L502.365 281.425Z" fill="#3C352E" stroke="#1D1D1B" stroke-width="1.7079" stroke-miterlimit="10"/>
<path d="M452.322 330.523C455.972 330.523 458.931 315.727 458.931 297.476C458.931 279.224 455.972 264.429 452.322 264.429C448.672 264.429 445.713 279.224 445.713 297.476C445.713 315.727 448.672 330.523 452.322 330.523Z" fill="#3C352E" stroke="#1D1D1B" stroke-width="1.7079" stroke-miterlimit="10"/>
<path d="M332.686 290.974L327.69 186.062L456.101 178.508C456.101 178.508 493.868 201.168 516.529 221.941C531.939 236.065 553.46 258.923 565.656 272.105C569.864 276.653 567.501 284.044 561.433 285.303C537.136 290.347 497.645 297.475 443.826 300.628C408.675 302.687 370.58 303.205 347.38 304.327C339.633 304.703 333.055 298.722 332.686 290.974Z" fill="#CFD3BA" stroke="#1D1D1B" stroke-width="1.7079" stroke-miterlimit="10"/>
<path d="M439.104 231.383C448.491 231.383 456.1 223.774 456.1 214.388C456.1 205.001 448.491 197.392 439.104 197.392C429.718 197.392 422.108 205.001 422.108 214.388C422.108 223.774 429.718 231.383 439.104 231.383Z" fill="#7A5644" stroke="#1D1D1B" stroke-width="1.7079" stroke-miterlimit="10"/>
<path d="M434.384 222.947C434.384 222.947 425.886 237.049 399.448 237.049L403.225 233.272L395.671 231.384C395.671 231.384 410.778 233.272 427.773 216.277L434.384 222.947Z" fill="#C6C3AB" stroke="#1D1D1B" stroke-width="1.1386" stroke-miterlimit="10"/>
<path d="M469.221 224.162C469.221 224.162 482.049 234.482 506.874 225.391L502.029 223.143L508.472 218.773C508.472 218.773 494.936 225.741 473.132 215.626L469.221 224.162Z" fill="#C6C3AB" stroke="#1D1D1B" stroke-width="1.1386" stroke-miterlimit="10"/>
<path d="M448.546 240.825C460.018 240.825 469.318 231.525 469.318 220.052C469.318 208.58 460.018 199.28 448.546 199.28C437.074 199.28 427.773 208.58 427.773 220.052C427.773 231.525 437.074 240.825 448.546 240.825Z" fill="#8A7331" stroke="#1D1D1B" stroke-width="1.7079" stroke-miterlimit="10"/>
<path d="M455.156 237.992C466.628 237.992 475.928 228.692 475.928 217.22C475.928 205.747 466.628 196.447 455.156 196.447C443.684 196.447 434.384 205.747 434.384 217.22C434.384 228.692 443.684 237.992 455.156 237.992Z" fill="#FFF9C9"/>
<path d="M633.048 264.049C636.786 262.278 637.917 257.484 635.34 254.249C627.11 243.912 605.427 223.329 583.566 209.666C553.352 190.782 520.318 173.604 500.012 167.086C491.036 171.898 479.705 175.676 468.375 175.676C468.375 175.676 542.974 219.047 594.064 270.87C598.026 274.888 604.074 275.985 609.172 273.569L633.048 264.049Z" fill="#CFD3BA" stroke="#1D1D1B" stroke-width="1.7079" stroke-miterlimit="10"/>
<path d="M490.515 166.044C440.34 180.396 382.065 178.507 314.763 178.507C250.879 178.507 198.628 174.731 146.263 165.855C153.061 74.684 227.595 6.66431 318.54 6.66431C408.295 6.66514 482.055 76.5913 490.515 166.044Z" fill="#5A9790" stroke="#1D1D1B" stroke-width="1.7079" stroke-miterlimit="10"/>
<path d="M400.945 155.08C399.973 144.175 397.874 127.221 394.076 124.689C391.488 122.964 386.934 122.032 382.746 121.523V117.136C390.3 113.36 390.3 109.583 390.3 109.583L395.965 105.806L399.742 103.918L397.853 100.141L394.077 94.4758L406.048 91.0551C406.491 90.929 406.547 90.3245 406.135 90.118L395.965 85.0329L408.665 75.9616C408.901 75.7933 408.873 75.4359 408.614 75.3065L397.853 69.9262L408.558 57.4383C408.779 57.1804 408.567 56.7848 408.229 56.8271L394.077 58.596C396.907 48.6912 395.496 40.9069 394.611 37.6263C394.498 37.2092 393.914 37.171 393.778 37.5815C391.816 43.539 380.858 52.9312 380.858 52.9312C379.312 48.2923 367.637 36.0573 363.458 31.7758C362.953 31.2584 362.082 31.6614 362.138 32.382L363.863 54.8187L345.297 51.4427C344.388 51.2777 343.681 52.2206 344.094 53.0473L352.533 69.9254C352.533 69.9254 348.358 72.0126 344.979 73.7019C342.216 75.0834 338.442 76.465 336.615 77.1068C336.276 77.2262 336.297 77.7064 336.641 77.8092L354.421 83.143L341.849 92.1232C341.511 92.3653 341.507 92.8712 341.854 93.1017C344.411 94.8025 350.645 96.3615 350.645 96.3615L346.868 102.027H358.199L354.422 107.693L360.088 109.581C363.864 111.469 367.642 113.357 367.642 113.357V120.399C362.513 120.019 355.589 119.744 354.423 120.911C353.148 122.187 349.289 137.241 346.918 146.882C337.324 145.989 327.758 145.46 318.544 145.46C304.267 145.46 290 146.521 276.519 148.132C272.621 139.361 265.669 134.13 265.669 134.13C265.669 134.13 269.446 130.353 273.223 126.576C276.999 122.799 276.999 115.246 276.999 115.246C280.776 113.357 278.888 105.804 278.888 102.027C278.888 98.2506 275.111 98.2506 275.111 98.2506C275.111 98.2506 276.999 96.3624 273.223 86.9204C269.447 77.4783 260.004 71.8136 246.786 71.8136C233.568 71.8136 227.902 77.4792 220.349 90.6977C212.795 103.916 222.237 117.135 222.237 117.135C222.237 124.688 235.456 134.13 235.456 134.13C227.724 143.151 226.151 152.164 225.929 156.983C208.674 160.917 197.688 164.344 197.688 164.344C229.791 181.34 454.509 168.12 454.509 168.12C454.509 168.12 431.607 161.254 400.945 155.08Z" fill="#1D1D1B"/>
<path d="M496.993 152.071C497.937 157.168 499.266 165.585 498.647 170.777C451.364 181.472 388.491 187.987 319.485 187.987C250.48 187.987 183.83 181.472 136.547 170.777C135.927 165.585 138.2 157.736 139.145 152.639C186.558 163.501 249.907 170.122 319.485 170.122C389.063 170.122 449.579 162.933 496.993 152.071Z" fill="#728165" stroke="#1D1D1B" stroke-width="1.7079" stroke-miterlimit="10"/>
<path d="M317.596 187.005C322.289 187.005 326.094 183.201 326.094 178.508C326.094 173.815 322.289 170.01 317.596 170.01C312.903 170.01 309.099 173.815 309.099 178.508C309.099 183.201 312.903 187.005 317.596 187.005Z" fill="#728165" stroke="#1D1D1B" stroke-width="1.7079" stroke-miterlimit="10"/>
<path d="M318.468 187.006H316.723C315.641 187.006 314.763 186.129 314.763 185.046V171.971C314.763 170.889 315.64 170.01 316.723 170.01H318.468C319.55 170.01 320.428 170.888 320.428 171.971V185.046C320.428 186.128 319.551 187.006 318.468 187.006Z" fill="#728165" stroke="#1D1D1B" stroke-width="1.7079" stroke-miterlimit="10"/>
<path d="M161.804 174.731C166.497 174.731 170.302 170.927 170.302 166.234C170.302 161.541 166.497 157.736 161.804 157.736C157.111 157.736 153.307 161.541 153.307 166.234C153.307 170.927 157.111 174.731 161.804 174.731Z" fill="#728165" stroke="#1D1D1B" stroke-width="1.7079" stroke-miterlimit="10"/>
<path d="M165.225 174.061L163.563 174.593C162.533 174.923 161.429 174.355 161.099 173.323L157.113 160.87C156.783 159.84 157.351 158.736 158.383 158.406L160.045 157.874C161.076 157.544 162.179 158.112 162.509 159.144L166.495 171.597C166.825 172.628 166.256 173.731 165.225 174.061Z" fill="#728165" stroke="#1D1D1B" stroke-width="1.7079" stroke-miterlimit="10"/>
<path d="M475.294 175.301C479.987 175.301 483.792 171.496 483.792 166.803C483.792 162.11 479.987 158.306 475.294 158.306C470.601 158.306 466.797 162.11 466.797 166.803C466.797 171.496 470.601 175.301 475.294 175.301Z" fill="#728165" stroke="#1D1D1B" stroke-width="1.7079" stroke-miterlimit="10"/>
<path d="M473.077 175.053L471.447 174.43C470.436 174.043 469.929 172.911 470.315 171.9L474.98 159.685C475.366 158.673 476.499 158.166 477.51 158.553L479.14 159.176C480.152 159.562 480.659 160.695 480.272 161.706L475.607 173.921C475.221 174.932 474.088 175.439 473.077 175.053Z" fill="#728165" stroke="#1D1D1B" stroke-width="1.7079" stroke-miterlimit="10"/>
</svg>
