<svg width="1187" height="2073" viewBox="0 0 1187 2073" fill="none" xmlns="http://www.w3.org/2000/svg">
<path d="M283.906 330.769C216.719 328.023 187.022 339.951 147.811 384.795C107.345 477.876 97.6428 527.07 147.811 599.265C114.527 990.477 301.152 1129.05 765.217 1054.4C779.199 1004.69 791.832 981.333 826.626 951.257C966.493 949.233 1002.99 910.318 1012.51 790.814C1085.11 391.659 936.784 223.767 576.012 199.795C494.821 205.005 453.188 212.463 391.786 240.724C330.519 275.71 304.608 295.406 283.906 330.769Z" fill="#FCC7A8" stroke="black" stroke-width="2"/>
<path d="M347.012 135.723C286.192 203.277 289.561 236.568 302.655 295.08C394.615 217.309 463.016 194.709 621.369 199.795C764.514 226.753 830.911 257.731 922.012 344.366C992.686 454.43 1014.44 511.467 1030.44 607.223C1027.76 731.899 1018.96 788.652 995.941 876.652C1057.76 865.493 1074.59 851.311 1092.87 820.795C1109.71 755.092 1128.42 720.863 1173.37 663.08C1191.62 544.258 1189.71 476.412 1158.58 352.58C1112.4 237.605 1106.01 204.723 984.441 120.938C862.869 37.1519 696.941 1.00903 696.941 1.00903C474.076 19.819 439.244 37.5804 427.512 73.2947C384.385 96.2692 369.192 106.867 347.012 135.723Z" fill="#76573B" stroke="black" stroke-width="2"/>
<path d="M302.655 822.438C284.723 826.437 277.735 831.692 273.084 848.723C275.103 863.654 279.657 870.811 302.655 878.295C328.041 890.465 380.081 901.875 489.941 924.295C542.672 927.765 553.688 918.552 514.584 866.795C476.079 850.135 457.212 840.923 379.869 822.438C356.305 819.508 339.541 819.457 302.655 822.438Z" fill="#680816" stroke="black" stroke-width="2"/>
<path d="M328.941 848.724C314.16 845.664 306.419 840.365 301.012 829.01L347.012 827.367C346.913 837.177 343.913 842.053 328.941 848.724Z" fill="white"/>
<path d="M355.227 840.51V827.367C372.241 823.891 383.128 825.428 406.155 833.938C428.54 837.77 441.128 841.763 463.655 853.652C477.068 855.457 485.81 858.912 501.441 865.152C504.554 870.482 504.881 873.674 501.441 879.938C495.779 882.431 493.001 883.951 476.798 883.224C465.982 872.943 462.795 866.537 463.655 853.652C459.676 863.887 453.96 867.552 437.37 870.081C419.638 862.117 411.383 855.56 407.637 841.413C407.531 843.466 407.033 845.758 406.155 848.724C401.129 855.197 395.615 857.66 381.512 860.224C367.992 855.03 362.134 850.799 355.227 840.51Z" fill="white"/>
<path d="M301.012 873.367C301.102 859.152 303.187 852.708 319.084 850.367C332.13 853.187 335.822 856.548 340.441 863.51C342.598 873.473 342.666 877.838 342.084 884.867C346.555 872.134 350.16 866.426 363.441 865.152C378.132 869.682 381.353 874.442 386.441 883.224C389.898 889.203 390.718 891.936 391.37 896.367C392.157 880.556 396.319 874.704 411.084 870.081C428.696 874.733 431.225 879.388 434.084 888.152C435.816 898.937 435.431 902.513 434.164 907.55C438.113 892.036 442.238 885.878 455.441 883.224C477.264 890.264 475.586 901.511 476.798 919.367C478.195 904.194 476.944 891.617 485.012 889.795C497.726 885.524 503.237 885.522 511.298 888.152C532.695 899.934 529.379 901.258 531.012 906.224V917.724C515.009 923.531 503.023 923.837 476.798 919.367L434.084 907.867L391.37 896.367L342.084 884.867L301.012 873.367Z" fill="white"/>
<path d="M406.155 833.938C408.183 838.771 408.136 842.031 406.155 848.724C401.129 855.197 395.615 857.66 381.512 860.224C367.992 855.03 362.134 850.799 355.227 840.51V827.367C372.241 823.891 383.128 825.428 406.155 833.938ZM406.155 833.938C408.968 853.482 416.778 860.832 437.37 870.081C453.96 867.552 459.676 863.887 463.655 853.652M406.155 833.938C428.54 837.77 441.128 841.763 463.655 853.652M463.655 853.652C462.795 866.537 465.982 872.943 476.798 883.224C493.001 883.951 495.779 882.431 501.441 879.938C504.881 873.674 504.554 870.482 501.441 865.152C485.81 858.912 477.068 855.457 463.655 853.652ZM342.084 884.867C342.666 877.838 342.598 873.473 340.441 863.51C335.822 856.548 332.13 853.187 319.084 850.367C303.187 852.708 301.102 859.152 301.012 873.367L342.084 884.867ZM342.084 884.867C346.555 872.134 350.16 866.426 363.441 865.152C378.132 869.682 381.353 874.442 386.441 883.224C389.898 889.203 390.718 891.936 391.37 896.367M342.084 884.867L391.37 896.367M391.37 896.367C392.157 880.556 396.319 874.704 411.084 870.081C428.696 874.733 431.225 879.388 434.084 888.152C435.852 899.161 435.414 902.659 434.084 907.867M391.37 896.367L434.084 907.867M434.084 907.867L476.798 919.367M434.084 907.867C438.058 892.12 442.148 885.896 455.441 883.224C477.264 890.264 475.586 901.511 476.798 919.367M476.798 919.367C478.195 904.194 476.944 891.617 485.012 889.795C497.726 885.524 503.237 885.522 511.298 888.152C532.695 899.934 529.379 901.258 531.012 906.224V917.724C515.009 923.531 503.023 923.837 476.798 919.367ZM301.012 829.01C306.419 840.365 314.16 845.664 328.941 848.724C343.913 842.053 346.913 837.177 347.012 827.367L301.012 829.01Z" stroke="black" stroke-width="2"/>
<path d="M368.37 638.438C322.45 662.666 308.654 679.264 324.012 718.938C357.221 728.694 375.426 728.945 406.155 707.438" stroke="black" stroke-width="2"/>
<path d="M355.225 393.652H140.643C84.3581 559.482 114.98 629.67 247.428 645.009C371.369 639.885 420.187 554.494 355.225 393.652Z" fill="#FCFAFC"/>
<path d="M734.726 423.224L534.298 408.438C477.829 450.537 461.588 480.196 462.012 544.795C473.786 653.356 514.759 684.55 629.583 704.152H636.155C798.991 658.572 832.205 603.066 734.726 423.224Z" fill="#FCFAFC"/>
<path d="M333.869 369.009C348.494 368.053 356.654 367.678 368.369 378.866C367.938 387.385 364.63 390.089 356.869 393.652M550.726 373.938C533.695 371.699 525.802 374.304 514.583 385.438C515.868 398.034 521.003 402.168 534.298 406.795M140.643 393.652H355.225C420.187 554.494 371.369 639.885 247.428 645.009C114.98 629.67 84.3581 559.482 140.643 393.652ZM534.298 408.438L734.726 423.224C832.205 603.066 798.991 658.572 636.155 704.152H629.583C514.759 684.55 473.786 653.356 462.012 544.795C461.588 480.196 477.829 450.537 534.298 408.438Z" stroke="black" stroke-width="2"/>
<path d="M159.727 439.652V446.223H163.012L166.298 449.509L169.584 451.152V452.795V454.438L172.869 459.366H182.727L189.298 452.795L190.941 446.223L186.012 441.295L182.727 436.366H174.512L166.298 439.652H159.727Z" fill="black" stroke="black" stroke-width="2"/>
<path d="M501.441 477.438V482.366H508.012V488.938L516.227 490.581L519.512 492.223V497.152L522.798 498.795L527.727 493.866L534.298 488.938V484.009L529.369 479.081L526.084 474.152L522.798 470.866H514.584V469.223L508.012 467.581L506.369 475.795L501.441 477.438Z" fill="black" stroke="black" stroke-width="2"/>
<path d="M337.786 1039.29C494.136 1084.87 588.079 1087.16 758.358 1047.51C769.073 989.994 781.824 974.391 849.727 939.08C904.831 942.346 927.652 956.385 954.869 1001.51L1084.66 1358.01C990.061 1361.9 950.85 1373.83 912.155 1417.15L908.969 1408.4C916.849 1437.04 924.318 1467.73 931.869 1502.58C958.294 1582.61 967.647 1626.81 976.227 1704.65C986.141 1848.92 991.418 1929.77 976.227 2071.01L419.298 2064.44C440.435 1817.1 439.279 1675.57 409.994 1417.15C354.889 1400.79 324.101 1397.24 269.798 1423.72C266.148 1265.43 277.218 1173.72 337.786 1039.29Z" fill="#F4F482"/>
<path d="M407.798 1264.37L409.994 1417.15M409.994 1417.15C439.279 1675.57 440.435 1817.1 419.298 2064.44L976.227 2071.01C991.418 1929.77 986.141 1848.92 976.227 1704.65C967.647 1626.81 958.294 1582.61 931.869 1502.58C903.095 1369.79 875.531 1297.39 821.798 1169.08L912.155 1417.15C950.85 1373.83 990.061 1361.9 1084.66 1358.01L954.869 1001.51C927.652 956.385 904.831 942.346 849.727 939.08C781.824 974.391 769.073 989.994 758.358 1047.51C588.079 1087.16 494.136 1084.87 337.786 1039.29C277.218 1173.72 266.148 1265.43 269.798 1423.72C324.101 1397.24 354.889 1400.79 409.994 1417.15Z" stroke="black" stroke-width="2"/>
<path d="M6.94138 1139.51C16.1686 1080.09 21.8725 1020.6 29.9414 1017.94C41.4477 1004.7 47.333 1022.69 56.2271 1128.01C58.2462 1108.95 56.6205 1119.42 69.37 1017.94C73.0495 1011.64 75.4107 1008.74 82.5128 1009.72C91.3561 1016.38 92.8633 1035.25 91.8471 1062.22C94.1147 1031.9 96.837 1012.55 102.227 1009.72C108.002 1001.7 111.239 997.496 117.013 1009.72C124.422 1048.67 122.252 1078.34 117.013 1132.94C126.707 1074.08 128.967 1026.94 149.87 1017.94C164.487 1006.37 160.21 1074.71 136.727 1193.72C146.161 1192.03 156.85 1190.57 184.37 1187.15C200.59 1190.09 206.596 1192.76 199.156 1203.58C167.858 1227.98 152.285 1242.76 136.727 1275.87C162.646 1377.56 180.738 1433.75 278.013 1519.01L289.513 1418.8C330.817 1404.48 356.15 1406.46 404.513 1425.37C408.331 1513.03 407.523 1562.76 394.656 1653.72C378.206 1680.66 364.174 1691.68 315.799 1691.51C142.974 1587.74 49.7672 1525.75 21.7271 1298.87C1.08798 1251.8 -4.7225 1219.54 6.94138 1139.51Z" fill="#FCC7A8"/>
<path d="M935.155 1509.15L915.441 1425.37C951.542 1377.14 981.248 1365.29 1046.87 1364.58C1070.05 1427.6 1077.18 1474.52 1081.37 1574.87C1085.83 1641.78 1050.98 1651.61 968.012 1653.72L935.155 1509.15Z" fill="#FCC7A8"/>
<path d="M935.155 1509.15L915.441 1425.37C951.542 1377.14 981.248 1365.29 1046.87 1364.58C1070.05 1427.6 1077.18 1474.52 1081.37 1574.87C1085.83 1641.78 1050.98 1651.61 968.012 1653.72L935.155 1509.15ZM935.155 1509.15C965.149 1526.58 983.745 1525.84 1017.3 1522.29M6.94138 1139.51C16.1686 1080.09 21.8725 1020.6 29.9414 1017.94C41.4477 1004.7 47.333 1022.69 56.2271 1128.01C58.2462 1108.95 56.6205 1119.42 69.37 1017.94C73.0495 1011.64 75.4107 1008.74 82.5128 1009.72C97.837 1021.25 91.1323 1069.48 87.4414 1132.94C91.7149 1063.69 93.3662 1014.36 102.227 1009.72C108.002 1001.7 111.239 997.496 117.013 1009.72C124.422 1048.67 122.252 1078.34 117.013 1132.94C126.707 1074.08 128.967 1026.94 149.87 1017.94C164.487 1006.37 160.21 1074.71 136.727 1193.72C146.161 1192.03 156.85 1190.57 184.37 1187.15C200.59 1190.09 206.596 1192.76 199.156 1203.58C167.858 1227.98 152.285 1242.76 136.727 1275.87C162.646 1377.56 180.738 1433.75 278.013 1519.01L289.513 1418.8C330.817 1404.48 356.15 1406.46 404.513 1425.37C408.331 1513.03 407.523 1562.76 394.656 1653.72C378.206 1680.66 364.174 1691.68 315.799 1691.51C142.974 1587.74 49.7672 1525.75 21.7271 1298.87C1.08798 1251.8 -4.7225 1219.54 6.94138 1139.51Z" stroke="black" stroke-width="2"/>
<path d="M878.286 894.723C878.286 894.723 919.006 936.832 975.214 909.509C1001.15 891.765 1004.79 853.652 1003.14 848.723C1001.5 843.795 1005.29 771.113 952.214 760.009" stroke="black" stroke-width="2"/>
</svg>
